<svg width="158" height="79" viewBox="0 0 158 79" fill="none" xmlns="http://www.w3.org/2000/svg">
<path d="M12.4416 16.6179H35.7588C42.6026 16.6754 47.5618 18.6486 50.6365 22.5342C53.7112 26.4199 54.7257 31.7271 53.6817 38.456C53.2762 41.5307 52.3766 44.5463 50.9845 47.5045C49.6499 50.4626 47.7949 53.1302 45.4163 55.5088C42.5156 58.5245 39.413 60.4385 36.1068 61.2511C32.8006 62.0637 29.3779 62.4692 25.8403 62.4692H15.3998L12.0936 79H0L12.4416 16.6179ZM22.6211 26.5364L17.4009 52.6377C17.7489 52.6952 18.0969 52.7247 18.4449 52.7247C18.8504 52.7247 19.2575 52.7247 19.663 52.7247C25.2313 52.7822 29.872 52.2322 33.5837 51.0716C37.2953 49.8536 39.7905 45.6199 41.066 38.369C42.1101 32.2787 41.066 28.769 37.9339 27.8415C34.8592 26.914 31.0031 26.479 26.3623 26.5364C25.6663 26.5939 24.9998 26.6234 24.3612 26.6234C23.7817 26.6234 23.1727 26.6234 22.5341 26.6234L22.6211 26.5364Z" fill="#3342FF"/>
<path d="M67.4579 0H79.4645L76.0713 16.6178H86.8599C92.7761 16.7344 97.1838 17.9524 100.085 20.272C103.043 22.5916 103.913 27.0009 102.695 33.4967L96.8654 62.4691H84.6848L90.253 34.8017C90.8325 31.901 90.6585 29.8425 89.731 28.6244C88.8035 27.4064 86.8024 26.7973 83.7277 26.7973L74.0702 26.7103L66.9359 62.4691H54.9293L67.4579 0Z" fill="#3342FF"/>
<path d="M115.588 16.6179H138.905C145.749 16.6754 150.708 18.6486 153.783 22.5342C156.857 26.4199 157.872 31.7271 156.828 38.456C156.422 41.5307 155.523 44.5463 154.131 47.5045C152.796 50.4626 150.941 53.1302 148.562 55.5088C145.662 58.5245 142.559 60.4385 139.253 61.2511C135.947 62.0637 132.524 62.4692 128.986 62.4692H118.546L115.24 79H103.146L115.588 16.6179ZM125.767 26.5364L120.547 52.6377C120.895 52.6952 121.243 52.7247 121.591 52.7247C121.996 52.7247 122.404 52.7247 122.809 52.7247C128.377 52.7822 133.018 52.2322 136.73 51.0716C140.441 49.8536 142.937 45.6199 144.212 38.369C145.256 32.2787 144.212 28.769 141.08 27.8415C138.005 26.914 134.149 26.479 129.508 26.5364C128.812 26.5939 128.146 26.6234 127.507 26.6234C126.928 26.6234 126.319 26.6234 125.68 26.6234L125.767 26.5364Z" fill="#3342FF"/>
</svg>
