<svg width="147" height="118" viewBox="0 0 147 118" fill="none" xmlns="http://www.w3.org/2000/svg">
<path d="M16.2162 15.3087C15.9389 7.34426 22.1442 0 30.5318 0H116.479C124.866 0 131.072 7.34426 130.794 15.3087C130.528 22.9593 130.874 32.8697 133.368 40.9504C135.87 49.0561 140.09 54.1796 147 54.8379V62.3027C140.09 62.9611 135.87 68.0845 133.368 76.1902C130.874 84.2709 130.528 94.1814 130.794 101.832C131.072 109.796 124.866 117.141 116.479 117.141H30.5318C22.1442 117.141 15.9389 109.796 16.2165 101.832C16.4827 94.1814 16.1367 84.2709 13.6423 76.1902C11.1404 68.0845 6.91072 62.9611 0 62.3027V54.8379C6.91044 54.1796 11.1404 49.0561 13.6423 40.9504C16.1367 32.8697 16.4827 22.9593 16.2162 15.3087Z" fill="url(#paint0_linear)"/>
<g filter="url(#filter0_d)">
<path d="M76.6878 89.7094C90.2672 89.7094 98.4501 83.0605 98.4501 72.0938C98.4501 63.804 92.6114 57.8026 83.9419 56.8526V56.5072C90.3114 55.471 95.3097 49.556 95.3097 42.9501C95.3097 33.5378 87.8787 27.4066 76.5551 27.4066H51.077V89.7094H76.6878ZM60.9852 35.3079H74.1666C81.3323 35.3079 85.4015 38.5028 85.4015 44.2884C85.4015 50.4626 80.6688 53.9166 72.0877 53.9166H60.9852V35.3079ZM60.9852 81.8084V61.2999H74.0779C83.4552 61.2999 88.3209 64.7538 88.3209 71.4894C88.3209 78.2247 83.5881 81.8084 74.653 81.8084H60.9852Z" fill="url(#paint1_linear)"/>
<path d="M76.6878 89.7094C90.2672 89.7094 98.4501 83.0605 98.4501 72.0938C98.4501 63.804 92.6114 57.8026 83.9419 56.8526V56.5072C90.3114 55.471 95.3097 49.556 95.3097 42.9501C95.3097 33.5378 87.8787 27.4066 76.5551 27.4066H51.077V89.7094H76.6878ZM60.9852 35.3079H74.1666C81.3323 35.3079 85.4015 38.5028 85.4015 44.2884C85.4015 50.4626 80.6688 53.9166 72.0877 53.9166H60.9852V35.3079ZM60.9852 81.8084V61.2999H74.0779C83.4552 61.2999 88.3209 64.7538 88.3209 71.4894C88.3209 78.2247 83.5881 81.8084 74.653 81.8084H60.9852Z" stroke="white"/>
</g>
<defs>
<filter id="filter0_d" x="34.577" y="14.9066" width="80.373" height="95.3027" filterUnits="userSpaceOnUse" color-interpolation-filters="sRGB">
<feFlood flood-opacity="0" result="BackgroundImageFix"/>
<feColorMatrix in="SourceAlpha" type="matrix" values="0 0 0 0 0 0 0 0 0 0 0 0 0 0 0 0 0 0 127 0" result="hardAlpha"/>
<feOffset dy="4"/>
<feGaussianBlur stdDeviation="8"/>
<feColorMatrix type="matrix" values="0 0 0 0 0 0 0 0 0 0 0 0 0 0 0 0 0 0 0.15 0"/>
<feBlend mode="normal" in2="BackgroundImageFix" result="effect1_dropShadow"/>
<feBlend mode="normal" in="SourceGraphic" in2="effect1_dropShadow" result="shape"/>
</filter>
<linearGradient id="paint0_linear" x1="21.843" y1="3.10021" x2="150.296" y2="105.066" gradientUnits="userSpaceOnUse">
<stop stop-color="#9013FE"/>
<stop offset="1" stop-color="#6610F2"/>
</linearGradient>
<linearGradient id="paint1_linear" x1="55.5579" y1="31.5074" x2="84.2706" y2="80.0668" gradientUnits="userSpaceOnUse">
<stop stop-color="white"/>
<stop offset="1" stop-color="#F1E5FC"/>
</linearGradient>
</defs>
</svg>
