<svg width="132" height="150" viewBox="0 0 132 150" fill="none" xmlns="http://www.w3.org/2000/svg">
<path d="M132 0L119.985 134.596L65.9784 149.568L12.1203 134.617L0.118286 0H132Z" fill="#264DE4"/>
<path d="M109.699 126.025L119.967 11.0067H66.0591V138.124L109.699 126.025Z" fill="#2965F1"/>
<path d="M27.6327 60.9343L29.1125 77.4444H66.0592V60.9343H27.6327Z" fill="#EBEBEB"/>
<path d="M66.0591 27.5173H66.002H24.6593L26.1602 44.0277H66.0591V27.5173Z" fill="#EBEBEB"/>
<path d="M66.0592 120.991V103.813L65.9868 103.832L47.5993 98.8675L46.4238 85.6998H37.4889H29.8502L32.1633 111.623L65.9832 121.012L66.0592 120.991Z" fill="#EBEBEB"/>
<path d="M86.3325 77.4445L84.4161 98.857L66.002 103.827V121.004L99.8489 111.623L100.097 108.834L103.977 65.3679L104.38 60.9344L107.36 27.5173H66.002V44.0277H89.2666L87.7643 60.9344H66.002V77.4445H86.3325Z" fill="white"/>
</svg>
