<svg width="97" height="147" viewBox="0 0 97 147" fill="none" xmlns="http://www.w3.org/2000/svg">
<path d="M24.3574 146.102C37.6444 146.102 48.4281 135.251 48.4281 121.881V97.6592H24.3574C11.0704 97.6592 0.286789 108.51 0.286789 121.881C0.286789 135.251 11.0704 146.102 24.3574 146.102Z" fill="#0ACF83"/>
<path d="M0.286789 73.4378C0.286789 60.0676 11.0704 49.2164 24.3574 49.2164H48.4281V97.6592H24.3574C11.0704 97.6592 0.286789 86.808 0.286789 73.4378Z" fill="#A259FF"/>
<path d="M0.287094 24.9949C0.287094 11.6247 11.0707 0.77356 24.3577 0.77356H48.4284V49.2163H24.3577C11.0707 49.2163 0.287094 38.3651 0.287094 24.9949Z" fill="#F24E1E"/>
<path d="M48.4281 0.77356H72.4988C85.7858 0.77356 96.5694 11.6247 96.5694 24.9949C96.5694 38.3651 85.7858 49.2163 72.4988 49.2163H48.4281V0.77356Z" fill="#FF7262"/>
<path d="M96.5694 73.4378C96.5694 86.808 85.7858 97.6592 72.4988 97.6592C59.2118 97.6592 48.4281 86.808 48.4281 73.4378C48.4281 60.0676 59.2118 49.2164 72.4988 49.2164C85.7858 49.2164 96.5694 60.0676 96.5694 73.4378Z" fill="#1ABCFE"/>
</svg>
