<svg width="175" height="140" viewBox="0 0 175 140" fill="none" xmlns="http://www.w3.org/2000/svg">
<path d="M19.305 18.6821C18.9749 9.20068 26.3621 0.45752 36.3474 0.45752H138.665C148.651 0.45752 156.038 9.20068 155.708 18.6821C155.39 27.79 155.802 39.5881 158.771 49.208C161.75 58.8576 166.773 64.957 175 65.7407V74.6274C166.773 75.4112 161.75 81.5105 158.771 91.1602C155.802 100.78 155.39 112.578 155.708 121.686C156.038 131.167 148.651 139.911 138.665 139.911H36.3474C26.3621 139.911 18.9749 131.167 19.3054 121.686C19.6222 112.578 19.2104 100.78 16.2408 91.1602C13.2624 81.5105 8.22705 75.4112 0 74.6274V65.7407C8.22671 64.957 13.2624 58.8576 16.2408 49.208C19.2104 39.5881 19.6222 27.79 19.305 18.6821Z" fill="#C2C3C6"/>
<g filter="url(#filter0_d_7_344)">
<path d="M91.295 107.254C107.461 107.254 117.202 99.3391 117.202 86.2834C117.202 76.4147 110.252 69.2702 99.9308 68.1392V67.728C107.514 66.4944 113.464 59.4527 113.464 51.5887C113.464 40.3835 104.618 33.0845 91.1371 33.0845H60.806V107.254H91.295ZM72.6014 42.4907H88.2936C96.8242 42.4907 101.668 46.2942 101.668 53.1818C101.668 60.5321 96.0343 64.6439 85.8187 64.6439H72.6014V42.4907ZM72.6014 97.8485V73.4336H88.188C99.3515 73.4336 105.144 77.5454 105.144 85.564C105.144 93.5822 99.5097 97.8485 88.8726 97.8485H72.6014Z" fill="#0B1421"/>
<path d="M91.295 107.254C107.461 107.254 117.202 99.3391 117.202 86.2834C117.202 76.4147 110.252 69.2702 99.9308 68.1392V67.728C107.514 66.4944 113.464 59.4527 113.464 51.5887C113.464 40.3835 104.618 33.0845 91.1371 33.0845H60.806V107.254H91.295ZM72.6014 42.4907H88.2936C96.8242 42.4907 101.668 46.2942 101.668 53.1818C101.668 60.5321 96.0343 64.6439 85.8187 64.6439H72.6014V42.4907ZM72.6014 97.8485V73.4336H88.188C99.3515 73.4336 105.144 77.5454 105.144 85.564C105.144 93.5822 99.5097 97.8485 88.8726 97.8485H72.6014Z" stroke="white"/>
</g>
<defs>
<filter id="filter0_d_7_344" x="44.306" y="20.5845" width="89.3965" height="107.17" filterUnits="userSpaceOnUse" color-interpolation-filters="sRGB">
<feFlood flood-opacity="0" result="BackgroundImageFix"/>
<feColorMatrix in="SourceAlpha" type="matrix" values="0 0 0 0 0 0 0 0 0 0 0 0 0 0 0 0 0 0 127 0" result="hardAlpha"/>
<feOffset dy="4"/>
<feGaussianBlur stdDeviation="8"/>
<feColorMatrix type="matrix" values="0 0 0 0 0 0 0 0 0 0 0 0 0 0 0 0 0 0 0.15 0"/>
<feBlend mode="normal" in2="BackgroundImageFix" result="effect1_dropShadow_7_344"/>
<feBlend mode="normal" in="SourceGraphic" in2="effect1_dropShadow_7_344" result="shape"/>
</filter>
</defs>
</svg>
