<svg width="160" height="182" viewBox="0 0 160 182" fill="none" xmlns="http://www.w3.org/2000/svg">
<path d="M160 0L145.424 163.293L79.9021 181.457L14.561 163.318L0 0H160Z" fill="#C2C3C6"/>
<path d="M33.3807 73.9261L35.176 93.9563H80V73.9261H33.3807Z" fill="#0B1421"/>
<path d="M80 33.3843H79.9307H29.7734L31.5943 53.4148H80V33.3843Z" fill="#0B1421"/>
<path d="M80 146.787V125.947L79.9122 125.971L57.6043 119.947L56.1783 103.972H45.3384H36.071L38.8772 135.422L79.9078 146.813L80 146.787Z" fill="#0B1421"/>
<path d="M104.596 93.9563L102.271 119.934L79.9307 125.964V146.803L120.994 135.422L121.295 132.038L126.002 79.3049L126.491 73.9262L130.107 33.3843H79.9307V53.4148H108.155L106.333 73.9262H79.9307V93.9563H104.596Z" fill="#0B1421"/>
</svg>
