<svg width="15" height="15" viewBox="0 0 15 15" fill="none" xmlns="http://www.w3.org/2000/svg">
<path fill-rule="evenodd" clip-rule="evenodd" d="M7.50231 0.0276036C5.7213 0.0257934 3.99785 0.658292 2.64082 1.81175C1.28379 2.96522 0.381868 4.56425 0.096706 6.32229C-0.188456 8.08032 0.161775 9.88245 1.08463 11.4057C2.00748 12.929 3.44264 14.0738 5.13291 14.6351C5.50558 14.7041 5.6436 14.4741 5.6436 14.2716C5.6436 14.0692 5.6436 13.6229 5.6436 12.9972C3.55944 13.4573 3.11777 11.9942 3.11777 11.9942C2.97974 11.5416 2.68438 11.1532 2.28503 10.8993C1.60411 10.4392 2.33564 10.4392 2.33564 10.4392C2.57363 10.4717 2.80103 10.5582 3.0004 10.6922C3.19977 10.8262 3.36583 11.004 3.48583 11.2121C3.58757 11.3967 3.72486 11.5594 3.8898 11.6907C4.05473 11.822 4.24404 11.9193 4.44679 11.9771C4.64954 12.0348 4.86172 12.0518 5.07108 12.0271C5.28045 12.0024 5.48284 11.9365 5.6666 11.8332C5.69626 11.4549 5.85931 11.0995 6.12668 10.8302C4.46119 10.6416 2.7129 9.9975 2.7129 7.12661C2.70271 6.38202 2.97949 5.66208 3.48583 5.11607C3.25739 4.46977 3.28371 3.76072 3.55944 3.13313C3.55944 3.13313 4.18975 2.93069 5.62059 3.90146C6.84936 3.56479 8.14606 3.56479 9.37483 3.90146C10.8057 2.93069 11.436 3.13313 11.436 3.13313C11.7122 3.76061 11.7385 4.46984 11.5096 5.11607C12.0147 5.66254 12.2898 6.38257 12.2779 7.12661C12.2779 10.0067 10.525 10.637 8.85494 10.8072C9.03304 10.988 9.17068 11.2045 9.25872 11.4424C9.34677 11.6804 9.38321 11.9344 9.36563 12.1875C9.36563 13.1904 9.36563 13.9956 9.36563 14.244C9.36563 14.4925 9.49905 14.6765 9.88092 14.6029C11.5682 14.039 12.9998 12.8933 13.9198 11.3708C14.8399 9.84817 15.1883 8.04796 14.9029 6.29204C14.6174 4.53613 13.7167 2.939 12.3617 1.78627C11.0067 0.633541 9.28588 0.000380701 7.50691 0L7.50231 0.0276036Z" fill="#E0E0E0"/>
</svg>
