<svg width="1080" height="1080" viewBox="0 0 1080 1080" fill="none" xmlns="http://www.w3.org/2000/svg">
<rect width="1080" height="1080" rx="540" fill="#2C57F4"/>
<path d="M409 835C397.954 835 389 826.046 389 815V600H499V815C499 826.046 490.046 835 479 835H409Z" fill="white"/>
<path d="M780 335C780 346.046 771.046 355 760 355L389 355V265C389 253.954 397.954 245 409 245L760 245C771.046 245 780 253.954 780 265V335Z" fill="white"/>
<path d="M601 521V815C601 826.046 609.954 835 621 835H691C702.046 835 711 826.046 711 815V521H601Z" fill="white"/>
<path d="M711 441C711 429.954 702.046 421 691 421H321C309.954 421 301 429.954 301 441V511C301 522.046 309.954 531 321 531H711V441Z" fill="white"/>
</svg>
