<svg width="29" height="29" viewBox="0 0 29 29" fill="none" xmlns="http://www.w3.org/2000/svg">
<path d="M22.2686 20.2641C22.2692 20.4985 22.2347 20.7317 22.1662 20.9558C22.0176 21.4465 21.7151 21.8762 21.3033 22.1815C20.8915 22.4868 20.3923 22.6514 19.8797 22.6509H10.3433C10.3021 22.6475 10.2607 22.6475 10.2195 22.6509H10.1533C9.55221 22.6067 8.99011 22.3367 8.57985 21.8952C8.1696 21.4537 7.94158 20.8733 7.94159 20.2706V14.5449L12.1622 12.9352C12.3597 12.8598 12.5464 12.7586 12.7173 12.6342V15.4885C12.717 15.8023 12.7786 16.113 12.8985 16.403C13.0185 16.693 13.1945 16.9564 13.4163 17.1783C13.6382 17.4002 13.9017 17.5762 14.1917 17.6961C14.4816 17.8161 14.7924 17.8777 15.1062 17.8774H19.8819C20.1957 17.8771 20.5064 17.9387 20.7964 18.0587C21.0864 18.1786 21.3498 18.3546 21.5717 18.5764C21.7936 18.7983 21.9696 19.0618 22.0895 19.3518C22.2095 19.6417 22.2711 19.9525 22.2708 20.2663L22.2686 20.2641Z" fill="#1672F5"/>
<path d="M28.6369 13.9065V26.6324C28.6373 27.211 28.4276 27.7701 28.0466 28.2056C27.6657 28.6411 27.1396 28.9234 26.5661 29H10.0102C9.4369 28.923 8.91101 28.6405 8.53017 28.2051C8.14933 27.7697 7.93941 27.2109 7.93939 26.6324V24.235H21.2524C21.325 24.235 21.3961 24.235 21.4659 24.235C21.5356 24.235 21.6068 24.235 21.6794 24.235C22.2751 24.1836 22.8299 23.9106 23.2339 23.4698C23.6379 23.029 23.8618 22.4526 23.8612 21.8546V18.6737C23.8615 18.3599 23.7999 18.0491 23.6799 17.7591C23.56 17.4692 23.384 17.2057 23.1621 16.9838C22.9402 16.7619 22.6768 16.586 22.3868 16.466C22.0969 16.3461 21.7861 16.2845 21.4723 16.2848H16.4639C15.8737 16.227 15.326 15.9518 14.9275 15.5126C14.529 15.0734 14.308 14.5017 14.3077 13.9087V7.55104C14.2981 7.23146 14.3528 6.91321 14.4685 6.61515C14.5842 6.3171 14.7586 6.0453 14.9813 5.81586C15.2039 5.58643 15.4704 5.40403 15.7649 5.27947C16.0593 5.15491 16.3758 5.09073 16.6955 5.09073C17.0153 5.09073 17.3317 5.15491 17.6262 5.27947C17.9207 5.40403 18.1871 5.58643 18.4098 5.81586C18.6325 6.0453 18.8068 6.3171 18.9225 6.61515C19.0382 6.91321 19.0929 7.23146 19.0834 7.55104V9.13298C19.0831 9.44659 19.1446 9.75719 19.2644 10.047C19.3843 10.3368 19.56 10.6002 19.7817 10.8221C20.0033 11.0439 20.2666 11.2199 20.5563 11.34C20.846 11.4601 21.1565 11.5219 21.4701 11.5219H26.248C26.8808 11.5219 27.4878 11.773 27.9357 12.2201C28.3836 12.6672 28.6357 13.2737 28.6369 13.9065Z" fill="#1672F5"/>
<path d="M25.2873 2.45086C25.2839 3.08407 25.0293 3.69003 24.5793 4.13557C24.1294 4.58112 23.5209 4.8298 22.8877 4.82696L19.0791 4.80775H18.6351C18.1142 4.30209 17.4179 4.01766 16.692 4.01408C15.966 4.0105 15.2669 4.28804 14.7411 4.78853H14.3034H12.7108H12.4547C12.2569 4.39538 11.9544 4.06454 11.5804 3.83259C11.2064 3.60063 10.7756 3.47658 10.3355 3.47415C9.89546 3.47172 9.46329 3.59101 9.08678 3.81882C8.71026 4.04663 8.40406 4.3741 8.20201 4.76505H7.93515H6.17175L6.18456 2.37614C6.18715 1.85603 6.35956 1.351 6.67556 0.937892C6.99156 0.524779 7.43385 0.226195 7.93515 0.0875663C8.14342 0.0282352 8.35906 -0.00123268 8.57561 3.94942e-05L12.7023 0.0213862H14.2949L19.0706 0.0448698L22.9133 0.0640827C23.5441 0.0674681 24.1479 0.320425 24.5928 0.767666C25.0376 1.21491 25.2873 1.82006 25.2873 2.45086Z" fill="#1672F5"/>
<path d="M12.7151 12.6341C12.5442 12.7586 12.3576 12.8598 12.16 12.9351L7.93942 14.5448L3.24272 16.3381C2.94975 16.4503 2.63756 16.5036 2.32398 16.4951C2.01039 16.4866 1.70156 16.4164 1.41511 16.2885C1.12865 16.1607 0.870177 15.9776 0.654457 15.7499C0.438736 15.5221 0.269993 15.2541 0.157851 14.9611C-0.0686292 14.3695 -0.0507911 13.712 0.207444 13.1335C0.465679 12.555 0.943153 12.1027 1.53483 11.8763L7.93942 9.43184V5.93707C7.92986 6.25666 7.98456 6.57491 8.10026 6.87296C8.21596 7.17102 8.39031 7.44282 8.61299 7.67226C8.83566 7.90169 9.10213 8.08409 9.39659 8.20865C9.69106 8.33321 10.0075 8.39739 10.3273 8.39739C10.647 8.39739 10.9635 8.33321 11.2579 8.20865C11.5524 8.08409 11.8189 7.90169 12.0415 7.67226C12.2642 7.44282 12.4386 7.17102 12.5543 6.87296C12.67 6.57491 12.7247 6.25666 12.7151 5.93707V7.68979L13.5456 9.85241C13.7318 10.3429 13.7514 10.8811 13.6013 11.3839C13.4512 11.8867 13.1398 12.326 12.7151 12.6341Z" fill="#1672F5"/>
<path d="M12.2305 5.74491C12.2301 6.05442 12.1582 6.35966 12.0203 6.63676C11.8825 6.91386 11.6824 7.15531 11.4357 7.34224C11.189 7.52917 10.9024 7.6565 10.5984 7.71429C10.2943 7.77208 9.98099 7.75875 9.68293 7.67535C9.38488 7.59195 9.11015 7.44073 8.88024 7.23353C8.65032 7.02633 8.47145 6.76875 8.3576 6.48094C8.24376 6.19313 8.19803 5.88289 8.22399 5.57448C8.24995 5.26606 8.34691 4.96783 8.50726 4.7031C8.56606 4.60634 8.63321 4.51491 8.70794 4.42984C8.97598 4.12092 9.33201 3.90127 9.72834 3.80032C10.1247 3.69936 10.5424 3.72192 10.9256 3.86496C11.3087 4.00801 11.639 4.26472 11.8722 4.60071C12.1055 4.9367 12.2304 5.33592 12.2305 5.74491Z" fill="#1672F5"/>
</svg>
