<svg width="287" height="150" viewBox="0 0 287 150" fill="none" xmlns="http://www.w3.org/2000/svg">
<path fill-rule="evenodd" clip-rule="evenodd" d="M0.0163269 136.199H9.48662V98.6821L24.2766 131.392C25.9519 135.324 28.3586 136.78 33.0187 136.78C37.6787 136.78 39.9418 135.322 41.6725 131.392L56.389 98.6821V136.199H65.9328V98.6821C65.9328 95.0409 64.4747 93.2889 61.4148 92.3419C54.2027 90.1572 49.3941 92.0512 47.2094 96.9301L32.7133 129.276L18.725 96.9301C16.6122 92.0512 11.7301 90.1572 4.44614 92.3419C1.4581 93.2889 0.00163191 95.0393 0.00163191 98.6821L0 136.199H0.0163269ZM73.816 105.675H83.3598V126.293C83.2879 127.457 83.7239 130.081 88.9113 130.151C91.6055 130.225 109.455 130.151 109.599 130.151V105.528H119.143V139.259C119.143 147.563 108.856 149.382 104.062 149.458H74.0511V143.122H104.139C110.259 142.466 109.53 139.408 109.53 138.387V135.908H89.3489C79.9505 135.835 73.9025 131.683 73.8323 126.948V105.672L73.816 105.675ZM278.528 81.7792C272.702 81.6323 268.182 82.2168 264.394 83.8202C263.303 84.2611 261.553 84.2611 261.409 85.6424C261.992 86.2221 262.062 87.1708 262.574 87.9741C263.447 89.4322 264.979 91.3965 266.362 92.4153C267.893 93.5828 269.423 94.747 271.023 95.7675C273.864 97.5146 277.07 98.5351 279.837 100.284C281.441 101.304 283.042 102.615 284.646 103.709C285.462 104.292 285.957 105.241 286.978 105.604V105.383C286.468 104.73 286.321 103.783 285.813 103.051C285.083 102.325 284.355 101.667 283.625 100.94C281.514 98.0992 278.89 95.6205 276.049 93.5828C273.717 91.9794 268.62 89.7947 267.673 87.1005L267.529 86.9536C269.129 86.8066 271.023 86.2237 272.555 85.7861C275.034 85.133 277.29 85.2767 279.837 84.6219C281.005 84.328 282.169 83.9656 283.336 83.6014V82.9483C282.025 81.6372 281.078 79.8884 279.695 78.6508C275.981 75.4456 271.899 72.3122 267.673 69.6899C265.415 68.2334 262.5 67.2848 260.097 66.0487C259.22 65.6112 257.765 65.3924 257.256 64.6641C255.941 63.064 255.215 60.9495 254.267 59.0538C252.156 55.0469 250.115 50.604 248.295 46.3783C246.984 43.5372 246.18 40.6961 244.58 38.0738C237.076 25.689 228.915 18.1862 216.385 10.8272C213.691 9.29722 210.485 8.6392 207.078 7.83912L201.614 7.54522C200.447 7.03578 199.283 5.65116 198.262 4.99477C194.11 2.37248 183.4 -3.3097 180.339 4.19469C178.371 8.92984 183.253 13.5915 184.911 15.9966C186.152 17.6719 187.752 19.566 188.629 21.46C189.118 22.6977 189.282 24.0105 189.793 25.3216C190.957 28.5268 192.051 32.0978 193.581 35.0858C194.397 36.6157 195.255 38.2208 196.275 39.6038C196.858 40.4039 197.878 40.7696 198.096 42.0807C197.075 43.5388 197.005 45.7219 196.422 47.5458C193.798 55.7784 194.819 65.9769 198.533 72.0216C199.701 73.8421 202.452 77.8507 206.185 76.3191C209.463 75.008 208.732 70.8557 209.679 67.2129C209.899 66.3394 209.752 65.7565 210.188 65.1719V65.3189L213.176 71.3652C215.434 74.9345 219.369 78.6508 222.647 81.1294C224.394 82.4405 225.778 84.7003 227.963 85.5004V85.28H227.819C227.382 84.6268 226.725 84.3329 226.142 83.8235C224.831 82.5124 223.375 80.9089 222.354 79.4525C219.296 75.3737 216.602 70.8557 214.197 66.1941C213.029 63.9359 212.009 61.4589 211.065 59.2007C210.624 58.3256 210.624 57.0128 209.898 56.5785C208.804 58.1786 207.203 59.5665 206.398 61.5324C205.014 64.6641 204.87 68.5257 204.361 72.5326C204.067 72.6061 204.197 72.5326 204.067 72.6796C201.738 72.0983 200.935 69.6915 200.062 67.6538C197.877 62.4811 197.511 54.1766 199.405 48.2021C199.915 46.6722 202.103 41.8636 201.229 40.4071C200.788 39.0225 199.335 38.2224 198.532 37.1284C197.585 35.7438 196.567 33.9967 195.911 32.4668C194.164 28.3847 193.29 23.87 191.395 19.7896C190.518 17.8956 188.989 15.9281 187.75 14.1809C186.366 12.2134 184.839 10.8288 183.745 8.49878C183.381 7.6987 182.871 6.38592 183.454 5.51073C183.598 4.92782 183.892 4.71066 184.471 4.56371C185.418 3.76363 188.116 4.7825 189.063 5.21683C191.757 6.31081 194.015 7.32969 196.273 8.858C197.294 9.58623 198.388 10.9708 199.699 11.3366H201.231C203.562 11.846 206.183 11.4836 208.366 12.1367C212.228 13.3776 215.723 15.1966 218.858 17.1657C228.401 23.212 236.271 31.8087 241.587 42.0824C242.461 43.7576 242.825 45.2876 243.628 47.0363C245.16 50.6073 247.054 54.2484 248.58 57.7475C250.112 61.1715 251.568 64.6707 253.753 67.5117C254.847 69.0417 259.217 69.8418 261.182 70.6435C262.641 71.2966 264.897 71.8844 266.211 72.6845C268.687 74.2144 271.164 75.9632 273.494 77.6384C274.658 78.5103 278.302 80.3326 278.52 81.7858L278.528 81.7792ZM204.235 18.472C203.228 18.4631 202.225 18.5855 201.25 18.8361V18.983H201.394C201.977 20.1489 202.997 20.9506 203.726 21.9711L205.402 25.4686L205.546 25.3216C206.567 24.5934 207.078 23.4275 207.078 21.6804C206.64 21.171 206.568 20.6599 206.204 20.1505C205.767 19.4223 204.82 19.0565 204.235 18.4752V18.472Z" fill="#C2C3C6"/>
<path fill-rule="evenodd" clip-rule="evenodd" d="M126.415 136.199H153.807C157.013 136.199 160.074 135.546 162.549 134.378C166.702 132.484 168.669 129.937 168.669 126.585V119.592C168.669 116.898 166.411 114.346 161.896 112.598C159.565 111.725 156.65 111.214 153.809 111.214H142.298C138.436 111.214 136.615 110.046 136.104 107.499C136.033 107.209 136.033 106.916 136.033 106.626V102.326C136.033 102.106 136.033 101.817 136.104 101.526C136.614 99.5588 137.634 99.0478 141.003 98.6853H169.05V92.3451H142.386C138.524 92.3451 136.485 92.5655 134.663 93.1484C129.052 94.8955 126.575 97.6648 126.575 102.544V108.084C126.575 112.378 131.384 116.024 139.543 116.898C140.417 116.971 141.364 116.971 142.311 116.971H152.147C152.511 116.971 152.873 116.971 153.164 117.045C156.152 117.335 157.463 117.845 158.337 118.935C158.92 119.518 159.067 120.029 159.067 120.686V126.221C159.067 126.874 158.629 127.753 157.755 128.479C156.882 129.206 155.494 129.717 153.673 129.79C153.309 129.79 153.094 129.864 152.726 129.864H126.415V136.199ZM227.968 125.2C227.968 131.683 232.866 135.324 242.614 136.055C243.561 136.129 244.435 136.199 245.382 136.199H270.151V129.864H245.165C239.624 129.864 237.513 128.479 237.513 125.129V92.3451H227.95V125.202L227.968 125.2ZM174.714 125.489V102.908C174.714 97.1521 178.793 93.653 186.736 92.5622C187.61 92.4888 188.483 92.4153 189.283 92.4153H207.349C208.296 92.4153 209.099 92.4888 210.046 92.5622C217.986 93.653 221.992 97.1504 221.992 102.908V125.489C221.992 130.151 220.318 132.63 216.381 134.307L225.705 142.755H214.706L207.13 135.908L199.479 136.346H189.28C187.411 136.337 185.551 136.093 183.743 135.619C177.702 133.941 174.714 130.737 174.714 125.489ZM184.984 124.983C184.984 125.274 185.147 125.563 185.205 125.93C185.714 128.551 188.189 130.009 191.977 130.009H200.576L192.709 122.869H203.708L210.627 129.136C211.942 128.406 212.742 127.385 213.033 126.074C213.106 125.783 213.106 125.421 213.106 125.127V103.489C213.106 103.198 213.106 102.909 213.033 102.615C212.523 100.14 210.048 98.7571 206.332 98.7571H191.979C187.753 98.7571 184.986 100.578 184.986 103.489L184.984 124.983Z" fill="#C2C3C6"/>
</svg>
