<svg width="331" height="166" viewBox="0 0 331 166" fill="none" xmlns="http://www.w3.org/2000/svg">
<path d="M165.535 165.391C256.57 165.391 330.369 128.504 330.369 82.9999C330.369 37.4963 256.57 0.608688 165.535 0.608688C74.5 0.608688 0.700562 37.4963 0.700562 82.9999C0.700562 128.504 74.5 165.391 165.535 165.391Z" fill="#C2C3C6"/>
<path d="M87.1964 93.215C94.6818 93.215 100.27 91.8534 103.805 89.1701C107.303 86.5143 109.719 81.9113 110.985 75.4914C112.166 69.4908 111.716 65.3008 109.649 63.0397C107.535 60.7303 102.965 59.559 96.066 59.559H84.1042L77.4719 93.2156H87.1958L87.1964 93.215ZM48.07 134.674C47.5147 134.674 46.9873 134.429 46.6343 134.005C46.4598 133.797 46.3342 133.552 46.2666 133.29C46.199 133.027 46.1911 132.754 46.2435 132.488L63.8188 43.298C63.9013 42.8798 64.1288 42.5029 64.4621 42.232C64.7955 41.961 65.214 41.8128 65.646 41.8129H103.525C115.43 41.8129 124.291 44.9949 129.86 51.2899C135.46 57.6112 137.189 66.4488 134.999 77.5543C134.109 82.0789 132.576 86.2805 130.446 90.0439C128.311 93.8104 125.492 97.2954 122.064 100.404C117.959 104.193 113.313 106.941 108.268 108.557C103.303 110.153 96.9265 110.962 89.3151 110.962H73.977L69.5968 133.189C69.5145 133.607 69.2872 133.984 68.954 134.255C68.6207 134.526 68.2023 134.675 67.7703 134.675H48.07V134.674Z" fill="#0B1421"/>
<path d="M180.166 110.961C179.61 110.961 179.084 110.716 178.731 110.293C178.378 109.869 178.233 109.314 178.34 108.775L186.114 69.3115C186.853 65.5585 186.671 62.8648 185.601 61.7266C184.945 61.0308 182.977 59.8638 177.159 59.8638H163.074L153.299 109.475C153.217 109.893 152.989 110.27 152.656 110.541C152.322 110.812 151.904 110.961 151.472 110.961H131.928C131.654 110.961 131.383 110.901 131.134 110.785C130.886 110.67 130.667 110.501 130.492 110.293C130.318 110.084 130.192 109.839 130.124 109.577C130.057 109.314 130.049 109.041 130.101 108.775L147.677 19.5849C147.759 19.1667 147.987 18.7898 148.32 18.5188C148.653 18.2479 149.072 18.0997 149.504 18.0997H169.047C169.322 18.0997 169.593 18.1596 169.841 18.2751C170.089 18.3906 170.309 18.5588 170.483 18.7677C170.658 18.9766 170.783 19.221 170.851 19.4835C170.919 19.7459 170.927 20.0198 170.874 20.2856L166.633 41.8123H181.785C193.328 41.8123 201.155 43.8194 205.715 47.9488C210.368 52.1614 211.812 58.8963 210.025 67.9714L201.848 109.476C201.765 109.894 201.538 110.271 201.205 110.542C200.871 110.814 200.453 110.962 200.021 110.962H180.167L180.166 110.961Z" fill="#0B1421"/>
<path d="M240.947 93.215C248.433 93.215 254.021 91.8534 257.556 89.1701C261.054 86.5143 263.47 81.9125 264.737 75.4914C265.918 69.4908 265.468 65.3008 263.4 63.0397C261.286 60.7303 256.716 59.559 249.817 59.559H237.855L231.223 93.2156H240.947L240.947 93.215ZM201.822 134.674C201.267 134.674 200.74 134.429 200.387 134.005C200.212 133.797 200.086 133.552 200.019 133.29C199.951 133.028 199.943 132.754 199.995 132.488L217.57 43.298C217.653 42.8797 217.88 42.5027 218.214 42.2318C218.547 41.9608 218.966 41.8127 219.398 41.8129H257.277C269.183 41.8129 278.043 44.9949 283.613 51.2899C289.212 57.6112 290.94 66.4476 288.752 77.5543C287.86 82.0789 286.328 86.2805 284.197 90.0439C282.062 93.8104 279.243 97.2954 275.815 100.404C271.71 104.193 267.064 106.941 262.019 108.557C257.054 110.153 250.678 110.962 243.066 110.962H227.726L223.348 133.189C223.265 133.608 223.038 133.985 222.704 134.256C222.371 134.527 221.952 134.675 221.52 134.675H201.822L201.822 134.674Z" fill="#0B1421"/>
</svg>
