<svg width="160" height="182" viewBox="0 0 160 182" fill="none" xmlns="http://www.w3.org/2000/svg">
<path d="M14.561 163.318L0 0H160L145.424 163.293L79.9021 181.457L14.561 163.318Z" fill="#C2C3C6"/>
<path d="M80.0001 73.926H53.4947L51.6641 53.4147H80.0001V33.3842H79.9308H29.7735L30.253 38.758L35.176 93.9562H80.0001V73.926Z" fill="#0B1421"/>
<path d="M80 125.947L79.9122 125.97L57.6043 119.947L56.1783 103.972H45.3384H36.071L38.8772 135.422L79.9078 146.813L80 146.787V125.947Z" fill="#0B1421"/>
<path d="M79.9308 73.926V93.9561H104.596L102.271 119.934L79.9308 125.964V146.803L120.994 135.422L121.295 132.038L126.002 79.3047L126.491 73.926H121.093H79.9308Z" fill="#0B1421"/>
<path d="M79.9308 33.3842V45.8248V53.3657V53.4147H128.249H128.314L128.715 48.9125L129.628 38.758L130.107 33.3842H79.9308Z" fill="#0B1421"/>
</svg>
