<svg width="15" height="15" viewBox="0 0 15 15" fill="none" xmlns="http://www.w3.org/2000/svg">
<path d="M7.50002 0C5.46313 0 5.20771 0.00861428 4.40775 0.0449857C3.60946 0.0812903 3.06427 0.2077 2.5872 0.392495C2.09401 0.583568 1.67575 0.839236 1.25881 1.25488C0.84185 1.67053 0.585386 2.08753 0.39374 2.57919C0.208325 3.05475 0.0815659 3.59826 0.0451035 4.39406C0.00861879 5.19154 0 5.44616 0 7.47673C0 9.50725 0.00861879 9.76188 0.0451035 10.5594C0.0815659 11.3552 0.208325 11.8987 0.39374 12.3742C0.585408 12.8659 0.841873 13.2828 1.25881 13.6985C1.67577 14.1142 2.09401 14.3699 2.5872 14.5609C3.06427 14.7457 3.60946 14.8721 4.40775 14.9084C5.20771 14.9448 5.46313 14.9534 7.50002 14.9534C9.53687 14.9534 9.79228 14.9448 10.5922 14.9084C11.3905 14.8721 11.9357 14.7457 12.4128 14.5609C12.906 14.3699 13.3242 14.1142 13.7412 13.6985C14.1581 13.2828 14.4146 12.8659 14.6063 12.3742C14.7917 11.8987 14.9185 11.3552 14.9549 10.5594C14.9914 9.76188 15 9.50725 15 7.47673C15 5.44616 14.9914 5.19154 14.9549 4.39406C14.9185 3.59826 14.7917 3.05475 14.6063 2.57919C14.4146 2.08753 14.1581 1.67053 13.7412 1.25488C13.3242 0.839236 12.906 0.583568 12.4128 0.392495C11.9357 0.2077 11.3905 0.0812903 10.5922 0.0449857C9.79228 0.00861428 9.53687 0 7.50002 0ZM7.50002 1.34714C9.50257 1.34714 9.73979 1.35478 10.5306 1.39075C11.2619 1.42398 11.659 1.54579 11.9233 1.64818C12.2734 1.78382 12.5232 1.94583 12.7856 2.20746C13.0481 2.46909 13.2106 2.71817 13.3467 3.06715C13.4494 3.33061 13.5716 3.72651 13.6049 4.45548C13.641 5.24387 13.6487 5.48035 13.6487 7.47671C13.6487 9.47306 13.641 9.70954 13.6049 10.4979C13.5716 11.2269 13.4494 11.6228 13.3467 11.8862C13.2106 12.2353 13.0481 12.4843 12.7856 12.7459C12.5232 13.0076 12.2734 13.1696 11.9233 13.3052C11.659 13.4076 11.2619 13.5294 10.5306 13.5627C9.73992 13.5986 9.50273 13.6063 7.5 13.6063C5.49727 13.6063 5.26012 13.5986 4.46936 13.5626C3.7381 13.5294 3.34099 13.4076 3.07673 13.3052C2.72662 13.1696 2.47679 13.0076 2.21436 12.7459C1.95191 12.4843 1.78938 12.2352 1.65331 11.8863C1.5506 11.6228 1.42844 11.2269 1.39508 10.4979C1.359 9.70954 1.35134 9.47306 1.35134 7.47671C1.35134 5.48035 1.359 5.24387 1.39508 4.45548C1.42844 3.72649 1.5506 3.33061 1.65331 3.06717C1.78938 2.71815 1.95191 2.46909 2.21434 2.20748C2.47679 1.94583 2.72664 1.78382 3.07671 1.64818C3.34099 1.54579 3.73812 1.42398 4.46936 1.39075C5.26021 1.35478 5.49743 1.34714 7.5 1.34714" fill="white"/>
<path d="M7.50002 9.96896C6.11928 9.96896 4.99999 8.85315 4.99999 7.47674C4.99999 6.10028 6.11928 4.98447 7.50002 4.98447C8.88073 4.98447 10 6.10028 10 7.47674C10 8.85315 8.88073 9.96896 7.50002 9.96896ZM7.50002 3.63733C5.37295 3.63733 3.64865 5.35627 3.64865 7.47674C3.64865 9.59717 5.37295 11.3161 7.50002 11.3161C9.62706 11.3161 11.3514 9.59717 11.3514 7.47674C11.3514 5.35627 9.62706 3.63733 7.50002 3.63733ZM12.4035 3.48563C12.4035 3.98116 12.0006 4.38283 11.5035 4.38283C11.0065 4.38283 10.6035 3.98116 10.6035 3.48563C10.6035 2.99012 11.0065 2.58841 11.5035 2.58841C12.0006 2.58841 12.4035 2.99012 12.4035 3.48563Z" fill="white"/>
</svg>
